<svg xmlns="http://www.w3.org/2000/svg" version="1.1" xmlns:xlink="http://www.w3.org/1999/xlink" xmlns:svgjs="http://svgjs.com/svgjs" width="800" height="1080" preserveAspectRatio="none" viewBox="0 0 800 1080"><g mask="url(&quot;#SvgjsMask1050&quot;)" fill="none"><path d="M-92.45 759.44L-92.45 759.44" stroke="rgba(255, 201, 240, 1)" stroke-width="1.5"></path><path d="M-92.45 759.44L-74.08 847.86" stroke="rgba(255, 201, 240, 1)" stroke-width="1.5"></path><path d="M-92.45 759.44L51.31 877.25" stroke="rgba(255, 201, 240, 1)" stroke-width="1.5"></path><path d="M-92.45 759.44L97.08 771.92" stroke="rgba(255, 201, 240, 1)" stroke-width="1.5"></path><path d="M-92.45 759.44L-54.08 1015.61" stroke="rgba(255, 201, 240, 1)" stroke-width="1.5"></path><path d="M-74.08 847.86L-74.08 847.86" stroke="rgba(255, 201, 240, 1)" stroke-width="1.5"></path><path d="M-74.08 847.86L51.31 877.25" stroke="rgba(255, 201, 240, 1)" stroke-width="1.5"></path><path d="M-74.08 847.86L-54.08 1015.61" stroke="rgba(255, 201, 240, 1)" stroke-width="1.5"></path><path d="M-74.08 847.86L97.08 771.92" stroke="rgba(255, 201, 240, 1)" stroke-width="1.5"></path><path d="M-74.08 847.86L77.54 1018.24" stroke="rgba(255, 201, 240, 1)" stroke-width="1.5"></path><path d="M-54.08 1015.61L-54.08 1015.61" stroke="rgba(255, 201, 240, 1)" stroke-width="1.5"></path><path d="M-54.08 1015.61L77.54 1018.24" stroke="rgba(255, 201, 240, 1)" stroke-width="1.5"></path><path d="M-54.08 1015.61L68.87 1121.26" stroke="rgba(255, 201, 240, 1)" stroke-width="1.5"></path><path d="M97.08 771.92L97.08 771.92" stroke="rgba(255, 201, 240, 1)" stroke-width="1.5"></path><path d="M97.08 771.92L51.31 877.25" stroke="rgba(255, 201, 240, 1)" stroke-width="1.5"></path><path d="M97.08 771.92L217.76 890.56" stroke="rgba(255, 201, 240, 1)" stroke-width="1.5"></path><path d="M97.08 771.92L316.86 730.1" stroke="rgba(255, 201, 240, 1)" stroke-width="1.5"></path><path d="M97.08 771.92L311.42 882.35" stroke="rgba(255, 201, 240, 1)" stroke-width="1.5"></path><path d="M51.31 877.25L51.31 877.25" stroke="rgba(255, 201, 240, 1)" stroke-width="1.5"></path><path d="M51.31 877.25L77.54 1018.24" stroke="rgba(255, 201, 240, 1)" stroke-width="1.5"></path><path d="M51.31 877.25L217.76 890.56" stroke="rgba(255, 201, 240, 1)" stroke-width="1.5"></path><path d="M51.31 877.25L-54.08 1015.61" stroke="rgba(255, 201, 240, 1)" stroke-width="1.5"></path><path d="M77.54 1018.24L77.54 1018.24" stroke="rgba(255, 201, 240, 1)" stroke-width="1.5"></path><path d="M77.54 1018.24L68.87 1121.26" stroke="rgba(255, 201, 240, 1)" stroke-width="1.5"></path><path d="M68.87 1121.26L68.87 1121.26" stroke="rgba(255, 201, 240, 1)" stroke-width="1.5"></path><path d="M68.87 1121.26L193.58 1168.82" stroke="rgba(255, 201, 240, 1)" stroke-width="1.5"></path><path d="M217.76 890.56L217.76 890.56" stroke="rgba(255, 201, 240, 1)" stroke-width="1.5"></path><path d="M217.76 890.56L311.42 882.35" stroke="rgba(255, 201, 240, 1)" stroke-width="1.5"></path><path d="M217.76 890.56L235.6 1026.17" stroke="rgba(255, 201, 240, 1)" stroke-width="1.5"></path><path d="M217.76 890.56L336.47 1004.24" stroke="rgba(255, 201, 240, 1)" stroke-width="1.5"></path><path d="M235.6 1026.17L235.6 1026.17" stroke="rgba(255, 201, 240, 1)" stroke-width="1.5"></path><path d="M235.6 1026.17L336.47 1004.24" stroke="rgba(255, 201, 240, 1)" stroke-width="1.5"></path><path d="M235.6 1026.17L332.95 1119.93" stroke="rgba(255, 201, 240, 1)" stroke-width="1.5"></path><path d="M235.6 1026.17L193.58 1168.82" stroke="rgba(255, 201, 240, 1)" stroke-width="1.5"></path><path d="M235.6 1026.17L77.54 1018.24" stroke="rgba(255, 201, 240, 1)" stroke-width="1.5"></path><path d="M235.6 1026.17L311.42 882.35" stroke="rgba(255, 201, 240, 1)" stroke-width="1.5"></path><path d="M193.58 1168.82L193.58 1168.82" stroke="rgba(255, 201, 240, 1)" stroke-width="1.5"></path><path d="M193.58 1168.82L332.95 1119.93" stroke="rgba(255, 201, 240, 1)" stroke-width="1.5"></path><path d="M332.89 590.66L332.89 590.66" stroke="rgba(255, 201, 240, 1)" stroke-width="1.5"></path><path d="M332.89 590.66L316.86 730.1" stroke="rgba(255, 201, 240, 1)" stroke-width="1.5"></path><path d="M332.89 590.66L503.41 580.63" stroke="rgba(255, 201, 240, 1)" stroke-width="1.5"></path><path d="M332.89 590.66L449.77 454.88" stroke="rgba(255, 201, 240, 1)" stroke-width="1.5"></path><path d="M332.89 590.66L456.27 727.65" stroke="rgba(255, 201, 240, 1)" stroke-width="1.5"></path><path d="M332.89 590.66L611.08 601.22" stroke="rgba(255, 201, 240, 1)" stroke-width="1.5"></path><path d="M332.89 590.66L442.47 326.07" stroke="rgba(255, 201, 240, 1)" stroke-width="1.5"></path><path d="M316.86 730.1L316.86 730.1" stroke="rgba(255, 201, 240, 1)" stroke-width="1.5"></path><path d="M316.86 730.1L456.27 727.65" stroke="rgba(255, 201, 240, 1)" stroke-width="1.5"></path><path d="M316.86 730.1L311.42 882.35" stroke="rgba(255, 201, 240, 1)" stroke-width="1.5"></path><path d="M316.86 730.1L217.76 890.56" stroke="rgba(255, 201, 240, 1)" stroke-width="1.5"></path><path d="M311.42 882.35L311.42 882.35" stroke="rgba(255, 201, 240, 1)" stroke-width="1.5"></path><path d="M311.42 882.35L336.47 1004.24" stroke="rgba(255, 201, 240, 1)" stroke-width="1.5"></path><path d="M311.42 882.35L473.22 894.03" stroke="rgba(255, 201, 240, 1)" stroke-width="1.5"></path><path d="M311.42 882.35L456.27 727.65" stroke="rgba(255, 201, 240, 1)" stroke-width="1.5"></path><path d="M336.47 1004.24L336.47 1004.24" stroke="rgba(255, 201, 240, 1)" stroke-width="1.5"></path><path d="M336.47 1004.24L332.95 1119.93" stroke="rgba(255, 201, 240, 1)" stroke-width="1.5"></path><path d="M336.47 1004.24L454.76 1042.44" stroke="rgba(255, 201, 240, 1)" stroke-width="1.5"></path><path d="M332.95 1119.93L332.95 1119.93" stroke="rgba(255, 201, 240, 1)" stroke-width="1.5"></path><path d="M468.66 207.03L468.66 207.03" stroke="rgba(255, 201, 240, 1)" stroke-width="1.5"></path><path d="M468.66 207.03L442.47 326.07" stroke="rgba(255, 201, 240, 1)" stroke-width="1.5"></path><path d="M468.66 207.03L605.27 169.18" stroke="rgba(255, 201, 240, 1)" stroke-width="1.5"></path><path d="M468.66 207.03L576.71 362.36" stroke="rgba(255, 201, 240, 1)" stroke-width="1.5"></path><path d="M468.66 207.03L594.95 48.38" stroke="rgba(255, 201, 240, 1)" stroke-width="1.5"></path><path d="M468.66 207.03L449.77 454.88" stroke="rgba(255, 201, 240, 1)" stroke-width="1.5"></path><path d="M468.66 207.03L724.18 234.49" stroke="rgba(255, 201, 240, 1)" stroke-width="1.5"></path><path d="M442.47 326.07L442.47 326.07" stroke="rgba(255, 201, 240, 1)" stroke-width="1.5"></path><path d="M442.47 326.07L449.77 454.88" stroke="rgba(255, 201, 240, 1)" stroke-width="1.5"></path><path d="M449.77 454.88L449.77 454.88" stroke="rgba(255, 201, 240, 1)" stroke-width="1.5"></path><path d="M449.77 454.88L503.41 580.63" stroke="rgba(255, 201, 240, 1)" stroke-width="1.5"></path><path d="M449.77 454.88L576.71 362.36" stroke="rgba(255, 201, 240, 1)" stroke-width="1.5"></path><path d="M503.41 580.63L503.41 580.63" stroke="rgba(255, 201, 240, 1)" stroke-width="1.5"></path><path d="M503.41 580.63L611.08 601.22" stroke="rgba(255, 201, 240, 1)" stroke-width="1.5"></path><path d="M503.41 580.63L456.27 727.65" stroke="rgba(255, 201, 240, 1)" stroke-width="1.5"></path><path d="M456.27 727.65L456.27 727.65" stroke="rgba(255, 201, 240, 1)" stroke-width="1.5"></path><path d="M456.27 727.65L473.22 894.03" stroke="rgba(255, 201, 240, 1)" stroke-width="1.5"></path><path d="M456.27 727.65L611.08 601.22" stroke="rgba(255, 201, 240, 1)" stroke-width="1.5"></path><path d="M473.22 894.03L473.22 894.03" stroke="rgba(255, 201, 240, 1)" stroke-width="1.5"></path><path d="M473.22 894.03L612.06 865.63" stroke="rgba(255, 201, 240, 1)" stroke-width="1.5"></path><path d="M473.22 894.03L454.76 1042.44" stroke="rgba(255, 201, 240, 1)" stroke-width="1.5"></path><path d="M473.22 894.03L336.47 1004.24" stroke="rgba(255, 201, 240, 1)" stroke-width="1.5"></path><path d="M473.22 894.03L612.6 1045.54" stroke="rgba(255, 201, 240, 1)" stroke-width="1.5"></path><path d="M454.76 1042.44L454.76 1042.44" stroke="rgba(255, 201, 240, 1)" stroke-width="1.5"></path><path d="M454.76 1042.44L483.15 1122" stroke="rgba(255, 201, 240, 1)" stroke-width="1.5"></path><path d="M454.76 1042.44L332.95 1119.93" stroke="rgba(255, 201, 240, 1)" stroke-width="1.5"></path><path d="M454.76 1042.44L612.6 1045.54" stroke="rgba(255, 201, 240, 1)" stroke-width="1.5"></path><path d="M483.15 1122L483.15 1122" stroke="rgba(255, 201, 240, 1)" stroke-width="1.5"></path><path d="M483.15 1122L616.28 1162.72" stroke="rgba(255, 201, 240, 1)" stroke-width="1.5"></path><path d="M483.15 1122L332.95 1119.93" stroke="rgba(255, 201, 240, 1)" stroke-width="1.5"></path><path d="M483.15 1122L612.6 1045.54" stroke="rgba(255, 201, 240, 1)" stroke-width="1.5"></path><path d="M589.03 -70.18L589.03 -70.18" stroke="rgba(255, 201, 240, 1)" stroke-width="1.5"></path><path d="M589.03 -70.18L594.95 48.38" stroke="rgba(255, 201, 240, 1)" stroke-width="1.5"></path><path d="M589.03 -70.18L713.9 -53.82" stroke="rgba(255, 201, 240, 1)" stroke-width="1.5"></path><path d="M589.03 -70.18L732.07 83.14" stroke="rgba(255, 201, 240, 1)" stroke-width="1.5"></path><path d="M589.03 -70.18L605.27 169.18" stroke="rgba(255, 201, 240, 1)" stroke-width="1.5"></path><path d="M589.03 -70.18L468.66 207.03" stroke="rgba(255, 201, 240, 1)" stroke-width="1.5"></path><path d="M594.95 48.38L594.95 48.38" stroke="rgba(255, 201, 240, 1)" stroke-width="1.5"></path><path d="M594.95 48.38L605.27 169.18" stroke="rgba(255, 201, 240, 1)" stroke-width="1.5"></path><path d="M594.95 48.38L732.07 83.14" stroke="rgba(255, 201, 240, 1)" stroke-width="1.5"></path><path d="M594.95 48.38L713.9 -53.82" stroke="rgba(255, 201, 240, 1)" stroke-width="1.5"></path><path d="M605.27 169.18L605.27 169.18" stroke="rgba(255, 201, 240, 1)" stroke-width="1.5"></path><path d="M605.27 169.18L724.18 234.49" stroke="rgba(255, 201, 240, 1)" stroke-width="1.5"></path><path d="M605.27 169.18L732.07 83.14" stroke="rgba(255, 201, 240, 1)" stroke-width="1.5"></path><path d="M605.27 169.18L576.71 362.36" stroke="rgba(255, 201, 240, 1)" stroke-width="1.5"></path><path d="M576.71 362.36L576.71 362.36" stroke="rgba(255, 201, 240, 1)" stroke-width="1.5"></path><path d="M576.71 362.36L638.72 466.08" stroke="rgba(255, 201, 240, 1)" stroke-width="1.5"></path><path d="M576.71 362.36L442.47 326.07" stroke="rgba(255, 201, 240, 1)" stroke-width="1.5"></path><path d="M638.72 466.08L638.72 466.08" stroke="rgba(255, 201, 240, 1)" stroke-width="1.5"></path><path d="M638.72 466.08L739.9 466.41" stroke="rgba(255, 201, 240, 1)" stroke-width="1.5"></path><path d="M638.72 466.08L611.08 601.22" stroke="rgba(255, 201, 240, 1)" stroke-width="1.5"></path><path d="M638.72 466.08L713.22 612.39" stroke="rgba(255, 201, 240, 1)" stroke-width="1.5"></path><path d="M638.72 466.08L503.41 580.63" stroke="rgba(255, 201, 240, 1)" stroke-width="1.5"></path><path d="M611.08 601.22L611.08 601.22" stroke="rgba(255, 201, 240, 1)" stroke-width="1.5"></path><path d="M611.08 601.22L713.22 612.39" stroke="rgba(255, 201, 240, 1)" stroke-width="1.5"></path><path d="M612.06 865.63L612.06 865.63" stroke="rgba(255, 201, 240, 1)" stroke-width="1.5"></path><path d="M612.06 865.63L754.43 848.57" stroke="rgba(255, 201, 240, 1)" stroke-width="1.5"></path><path d="M612.06 865.63L612.6 1045.54" stroke="rgba(255, 201, 240, 1)" stroke-width="1.5"></path><path d="M612.06 865.63L749.59 1006.19" stroke="rgba(255, 201, 240, 1)" stroke-width="1.5"></path><path d="M612.06 865.63L456.27 727.65" stroke="rgba(255, 201, 240, 1)" stroke-width="1.5"></path><path d="M612.6 1045.54L612.6 1045.54" stroke="rgba(255, 201, 240, 1)" stroke-width="1.5"></path><path d="M612.6 1045.54L616.28 1162.72" stroke="rgba(255, 201, 240, 1)" stroke-width="1.5"></path><path d="M612.6 1045.54L749.59 1006.19" stroke="rgba(255, 201, 240, 1)" stroke-width="1.5"></path><path d="M612.6 1045.54L730.32 1170.87" stroke="rgba(255, 201, 240, 1)" stroke-width="1.5"></path><path d="M616.28 1162.72L616.28 1162.72" stroke="rgba(255, 201, 240, 1)" stroke-width="1.5"></path><path d="M616.28 1162.72L730.32 1170.87" stroke="rgba(255, 201, 240, 1)" stroke-width="1.5"></path><path d="M616.28 1162.72L454.76 1042.44" stroke="rgba(255, 201, 240, 1)" stroke-width="1.5"></path><path d="M713.9 -53.82L713.9 -53.82" stroke="rgba(255, 201, 240, 1)" stroke-width="1.5"></path><path d="M713.9 -53.82L732.07 83.14" stroke="rgba(255, 201, 240, 1)" stroke-width="1.5"></path><path d="M732.07 83.14L732.07 83.14" stroke="rgba(255, 201, 240, 1)" stroke-width="1.5"></path><path d="M724.18 234.49L724.18 234.49" stroke="rgba(255, 201, 240, 1)" stroke-width="1.5"></path><path d="M724.18 234.49L773.69 309.94" stroke="rgba(255, 201, 240, 1)" stroke-width="1.5"></path><path d="M773.69 309.94L773.69 309.94" stroke="rgba(255, 201, 240, 1)" stroke-width="1.5"></path><path d="M773.69 309.94L860.64 225.85" stroke="rgba(255, 201, 240, 1)" stroke-width="1.5"></path><path d="M773.69 309.94L904.88 338.37" stroke="rgba(255, 201, 240, 1)" stroke-width="1.5"></path><path d="M773.69 309.94L739.9 466.41" stroke="rgba(255, 201, 240, 1)" stroke-width="1.5"></path><path d="M739.9 466.41L739.9 466.41" stroke="rgba(255, 201, 240, 1)" stroke-width="1.5"></path><path d="M739.9 466.41L860.89 491.77" stroke="rgba(255, 201, 240, 1)" stroke-width="1.5"></path><path d="M739.9 466.41L713.22 612.39" stroke="rgba(255, 201, 240, 1)" stroke-width="1.5"></path><path d="M739.9 466.41L611.08 601.22" stroke="rgba(255, 201, 240, 1)" stroke-width="1.5"></path><path d="M739.9 466.41L576.71 362.36" stroke="rgba(255, 201, 240, 1)" stroke-width="1.5"></path><path d="M713.22 612.39L713.22 612.39" stroke="rgba(255, 201, 240, 1)" stroke-width="1.5"></path><path d="M713.22 612.39L775.4 721.59" stroke="rgba(255, 201, 240, 1)" stroke-width="1.5"></path><path d="M713.22 612.39L847.96 627.4" stroke="rgba(255, 201, 240, 1)" stroke-width="1.5"></path><path d="M775.4 721.59L775.4 721.59" stroke="rgba(255, 201, 240, 1)" stroke-width="1.5"></path><path d="M775.4 721.59L847.96 627.4" stroke="rgba(255, 201, 240, 1)" stroke-width="1.5"></path><path d="M775.4 721.59L754.43 848.57" stroke="rgba(255, 201, 240, 1)" stroke-width="1.5"></path><path d="M775.4 721.59L908.26 738.32" stroke="rgba(255, 201, 240, 1)" stroke-width="1.5"></path><path d="M775.4 721.59L611.08 601.22" stroke="rgba(255, 201, 240, 1)" stroke-width="1.5"></path><path d="M754.43 848.57L754.43 848.57" stroke="rgba(255, 201, 240, 1)" stroke-width="1.5"></path><path d="M754.43 848.57L887.76 899.77" stroke="rgba(255, 201, 240, 1)" stroke-width="1.5"></path><path d="M754.43 848.57L749.59 1006.19" stroke="rgba(255, 201, 240, 1)" stroke-width="1.5"></path><path d="M754.43 848.57L908.26 738.32" stroke="rgba(255, 201, 240, 1)" stroke-width="1.5"></path><path d="M754.43 848.57L876.76 1001.6" stroke="rgba(255, 201, 240, 1)" stroke-width="1.5"></path><path d="M749.59 1006.19L749.59 1006.19" stroke="rgba(255, 201, 240, 1)" stroke-width="1.5"></path><path d="M749.59 1006.19L876.76 1001.6" stroke="rgba(255, 201, 240, 1)" stroke-width="1.5"></path><path d="M730.32 1170.87L730.32 1170.87" stroke="rgba(255, 201, 240, 1)" stroke-width="1.5"></path><path d="M730.32 1170.87L851.69 1179.21" stroke="rgba(255, 201, 240, 1)" stroke-width="1.5"></path><path d="M730.32 1170.87L749.59 1006.19" stroke="rgba(255, 201, 240, 1)" stroke-width="1.5"></path><path d="M906.32 -53.26L906.32 -53.26" stroke="rgba(255, 201, 240, 1)" stroke-width="1.5"></path><path d="M906.32 -53.26L885.12 38.73" stroke="rgba(255, 201, 240, 1)" stroke-width="1.5"></path><path d="M906.32 -53.26L713.9 -53.82" stroke="rgba(255, 201, 240, 1)" stroke-width="1.5"></path><path d="M906.32 -53.26L732.07 83.14" stroke="rgba(255, 201, 240, 1)" stroke-width="1.5"></path><path d="M906.32 -53.26L860.64 225.85" stroke="rgba(255, 201, 240, 1)" stroke-width="1.5"></path><path d="M906.32 -53.26L589.03 -70.18" stroke="rgba(255, 201, 240, 1)" stroke-width="1.5"></path><path d="M906.32 -53.26L594.95 48.38" stroke="rgba(255, 201, 240, 1)" stroke-width="1.5"></path><path d="M885.12 38.73L885.12 38.73" stroke="rgba(255, 201, 240, 1)" stroke-width="1.5"></path><path d="M885.12 38.73L732.07 83.14" stroke="rgba(255, 201, 240, 1)" stroke-width="1.5"></path><path d="M860.64 225.85L860.64 225.85" stroke="rgba(255, 201, 240, 1)" stroke-width="1.5"></path><path d="M860.64 225.85L904.88 338.37" stroke="rgba(255, 201, 240, 1)" stroke-width="1.5"></path><path d="M860.64 225.85L724.18 234.49" stroke="rgba(255, 201, 240, 1)" stroke-width="1.5"></path><path d="M860.64 225.85L885.12 38.73" stroke="rgba(255, 201, 240, 1)" stroke-width="1.5"></path><path d="M904.88 338.37L904.88 338.37" stroke="rgba(255, 201, 240, 1)" stroke-width="1.5"></path><path d="M904.88 338.37L860.89 491.77" stroke="rgba(255, 201, 240, 1)" stroke-width="1.5"></path><path d="M904.88 338.37L724.18 234.49" stroke="rgba(255, 201, 240, 1)" stroke-width="1.5"></path><path d="M904.88 338.37L739.9 466.41" stroke="rgba(255, 201, 240, 1)" stroke-width="1.5"></path><path d="M860.89 491.77L860.89 491.77" stroke="rgba(255, 201, 240, 1)" stroke-width="1.5"></path><path d="M860.89 491.77L847.96 627.4" stroke="rgba(255, 201, 240, 1)" stroke-width="1.5"></path><path d="M860.89 491.77L713.22 612.39" stroke="rgba(255, 201, 240, 1)" stroke-width="1.5"></path><path d="M860.89 491.77L773.69 309.94" stroke="rgba(255, 201, 240, 1)" stroke-width="1.5"></path><path d="M860.89 491.77L638.72 466.08" stroke="rgba(255, 201, 240, 1)" stroke-width="1.5"></path><path d="M847.96 627.4L847.96 627.4" stroke="rgba(255, 201, 240, 1)" stroke-width="1.5"></path><path d="M847.96 627.4L908.26 738.32" stroke="rgba(255, 201, 240, 1)" stroke-width="1.5"></path><path d="M908.26 738.32L908.26 738.32" stroke="rgba(255, 201, 240, 1)" stroke-width="1.5"></path><path d="M908.26 738.32L887.76 899.77" stroke="rgba(255, 201, 240, 1)" stroke-width="1.5"></path><path d="M887.76 899.77L887.76 899.77" stroke="rgba(255, 201, 240, 1)" stroke-width="1.5"></path><path d="M887.76 899.77L876.76 1001.6" stroke="rgba(255, 201, 240, 1)" stroke-width="1.5"></path><path d="M887.76 899.77L749.59 1006.19" stroke="rgba(255, 201, 240, 1)" stroke-width="1.5"></path><path d="M887.76 899.77L775.4 721.59" stroke="rgba(255, 201, 240, 1)" stroke-width="1.5"></path><path d="M887.76 899.77L847.96 627.4" stroke="rgba(255, 201, 240, 1)" stroke-width="1.5"></path><path d="M876.76 1001.6L876.76 1001.6" stroke="rgba(255, 201, 240, 1)" stroke-width="1.5"></path><path d="M876.76 1001.6L851.69 1179.21" stroke="rgba(255, 201, 240, 1)" stroke-width="1.5"></path><path d="M851.69 1179.21L851.69 1179.21" stroke="rgba(255, 201, 240, 1)" stroke-width="1.5"></path><circle r="5" cx="-92.45" cy="759.44" fill="rgba(255, 201, 240, 1)"></circle><circle r="5" cx="-74.08" cy="847.86" fill="rgba(255, 201, 240, 1)"></circle><circle r="5" cx="-54.08" cy="1015.61" fill="rgba(255, 201, 240, 1)"></circle><circle r="5" cx="97.08" cy="771.92" fill="rgba(255, 201, 240, 1)"></circle><circle r="5" cx="51.31" cy="877.25" fill="rgba(255, 201, 240, 1)"></circle><circle r="5" cx="77.54" cy="1018.24" fill="rgba(255, 201, 240, 1)"></circle><circle r="5" cx="68.87" cy="1121.26" fill="rgba(255, 201, 240, 1)"></circle><circle r="5" cx="217.76" cy="890.56" fill="rgba(255, 201, 240, 1)"></circle><circle r="5" cx="235.6" cy="1026.17" fill="rgba(255, 201, 240, 1)"></circle><circle r="5" cx="193.58" cy="1168.82" fill="rgba(255, 201, 240, 1)"></circle><circle r="5" cx="332.89" cy="590.66" fill="rgba(255, 201, 240, 1)"></circle><circle r="5" cx="316.86" cy="730.1" fill="rgba(255, 201, 240, 1)"></circle><circle r="5" cx="311.42" cy="882.35" fill="rgba(255, 201, 240, 1)"></circle><circle r="5" cx="336.47" cy="1004.24" fill="rgba(255, 201, 240, 1)"></circle><circle r="5" cx="332.95" cy="1119.93" fill="rgba(255, 201, 240, 1)"></circle><circle r="5" cx="468.66" cy="207.03" fill="rgba(255, 201, 240, 1)"></circle><circle r="5" cx="442.47" cy="326.07" fill="rgba(255, 201, 240, 1)"></circle><circle r="5" cx="449.77" cy="454.88" fill="rgba(255, 201, 240, 1)"></circle><circle r="5" cx="503.41" cy="580.63" fill="rgba(255, 201, 240, 1)"></circle><circle r="5" cx="456.27" cy="727.65" fill="rgba(255, 201, 240, 1)"></circle><circle r="5" cx="473.22" cy="894.03" fill="rgba(255, 201, 240, 1)"></circle><circle r="5" cx="454.76" cy="1042.44" fill="rgba(255, 201, 240, 1)"></circle><circle r="5" cx="483.15" cy="1122" fill="rgba(255, 201, 240, 1)"></circle><circle r="5" cx="589.03" cy="-70.18" fill="rgba(255, 201, 240, 1)"></circle><circle r="5" cx="594.95" cy="48.38" fill="rgba(255, 201, 240, 1)"></circle><circle r="5" cx="605.27" cy="169.18" fill="rgba(255, 201, 240, 1)"></circle><circle r="5" cx="576.71" cy="362.36" fill="rgba(255, 201, 240, 1)"></circle><circle r="5" cx="638.72" cy="466.08" fill="rgba(255, 201, 240, 1)"></circle><circle r="5" cx="611.08" cy="601.22" fill="rgba(255, 201, 240, 1)"></circle><circle r="5" cx="612.06" cy="865.63" fill="rgba(255, 201, 240, 1)"></circle><circle r="5" cx="612.6" cy="1045.54" fill="rgba(255, 201, 240, 1)"></circle><circle r="5" cx="616.28" cy="1162.72" fill="rgba(255, 201, 240, 1)"></circle><circle r="5" cx="713.9" cy="-53.82" fill="rgba(255, 201, 240, 1)"></circle><circle r="5" cx="732.07" cy="83.14" fill="rgba(255, 201, 240, 1)"></circle><circle r="5" cx="724.18" cy="234.49" fill="rgba(255, 201, 240, 1)"></circle><circle r="5" cx="773.69" cy="309.94" fill="rgba(255, 201, 240, 1)"></circle><circle r="5" cx="739.9" cy="466.41" fill="rgba(255, 201, 240, 1)"></circle><circle r="5" cx="713.22" cy="612.39" fill="rgba(255, 201, 240, 1)"></circle><circle r="5" cx="775.4" cy="721.59" fill="rgba(255, 201, 240, 1)"></circle><circle r="5" cx="754.43" cy="848.57" fill="rgba(255, 201, 240, 1)"></circle><circle r="5" cx="749.59" cy="1006.19" fill="rgba(255, 201, 240, 1)"></circle><circle r="5" cx="730.32" cy="1170.87" fill="rgba(255, 201, 240, 1)"></circle><circle r="5" cx="906.32" cy="-53.26" fill="rgba(255, 201, 240, 1)"></circle><circle r="5" cx="885.12" cy="38.73" fill="rgba(255, 201, 240, 1)"></circle><circle r="5" cx="860.64" cy="225.85" fill="rgba(255, 201, 240, 1)"></circle><circle r="5" cx="904.88" cy="338.37" fill="rgba(255, 201, 240, 1)"></circle><circle r="5" cx="860.89" cy="491.77" fill="rgba(255, 201, 240, 1)"></circle><circle r="5" cx="847.96" cy="627.4" fill="rgba(255, 201, 240, 1)"></circle><circle r="5" cx="908.26" cy="738.32" fill="rgba(255, 201, 240, 1)"></circle><circle r="5" cx="887.76" cy="899.77" fill="rgba(255, 201, 240, 1)"></circle><circle r="5" cx="876.76" cy="1001.6" fill="rgba(255, 201, 240, 1)"></circle><circle r="5" cx="851.69" cy="1179.21" fill="rgba(255, 201, 240, 1)"></circle><path d="M352.42 880.91L352.42 880.91" stroke="hsl(317.20000000000005, 88.4%, 94.8%)" stroke-width="1.5"></path><path d="M352.42 880.91L445.66 875.7" stroke="hsl(317.20000000000005, 88.4%, 94.8%)" stroke-width="1.5"></path><path d="M352.42 880.91L220.13 890.57" stroke="hsl(317.20000000000005, 88.4%, 94.8%)" stroke-width="1.5"></path><path d="M352.42 880.91L213.12 1012.08" stroke="hsl(317.20000000000005, 88.4%, 94.8%)" stroke-width="1.5"></path><path d="M352.42 880.91L461.38 1039.54" stroke="hsl(317.20000000000005, 88.4%, 94.8%)" stroke-width="1.5"></path><path d="M352.42 880.91L475.13 720.46" stroke="hsl(317.20000000000005, 88.4%, 94.8%)" stroke-width="1.5"></path><path d="M594.98 482.12L594.98 482.12" stroke="hsl(317.20000000000005, 88.4%, 94.8%)" stroke-width="1.5"></path><path d="M594.98 482.12L577.49 613.2" stroke="hsl(317.20000000000005, 88.4%, 94.8%)" stroke-width="1.5"></path><path d="M594.98 482.12L736.89 487.44" stroke="hsl(317.20000000000005, 88.4%, 94.8%)" stroke-width="1.5"></path><path d="M594.98 482.12L449.25 621.38" stroke="hsl(317.20000000000005, 88.4%, 94.8%)" stroke-width="1.5"></path><path d="M594.98 482.12L756.03 347.31" stroke="hsl(317.20000000000005, 88.4%, 94.8%)" stroke-width="1.5"></path><path d="M594.98 482.12L753.48 632.01" stroke="hsl(317.20000000000005, 88.4%, 94.8%)" stroke-width="1.5"></path><path d="M577.49 613.2L577.49 613.2" stroke="hsl(317.20000000000005, 88.4%, 94.8%)" stroke-width="1.5"></path><path d="M577.49 613.2L579.77 712.25" stroke="hsl(317.20000000000005, 88.4%, 94.8%)" stroke-width="1.5"></path><path d="M577.49 613.2L449.25 621.38" stroke="hsl(317.20000000000005, 88.4%, 94.8%)" stroke-width="1.5"></path><path d="M577.49 613.2L475.13 720.46" stroke="hsl(317.20000000000005, 88.4%, 94.8%)" stroke-width="1.5"></path><path d="M577.49 613.2L753.48 632.01" stroke="hsl(317.20000000000005, 88.4%, 94.8%)" stroke-width="1.5"></path><path d="M577.49 613.2L736.89 487.44" stroke="hsl(317.20000000000005, 88.4%, 94.8%)" stroke-width="1.5"></path><path d="M727.98 49.24L727.98 49.24" stroke="hsl(317.20000000000005, 88.4%, 94.8%)" stroke-width="1.5"></path><path d="M727.98 49.24L724.52 -37.3" stroke="hsl(317.20000000000005, 88.4%, 94.8%)" stroke-width="1.5"></path><path d="M727.98 49.24L879.87 47.75" stroke="hsl(317.20000000000005, 88.4%, 94.8%)" stroke-width="1.5"></path><path d="M727.98 49.24L753.22 200.67" stroke="hsl(317.20000000000005, 88.4%, 94.8%)" stroke-width="1.5"></path><path d="M727.98 49.24L843.83 197.55" stroke="hsl(317.20000000000005, 88.4%, 94.8%)" stroke-width="1.5"></path><path d="M756.03 347.31L756.03 347.31" stroke="hsl(317.20000000000005, 88.4%, 94.8%)" stroke-width="1.5"></path><path d="M756.03 347.31L885.18 342.25" stroke="hsl(317.20000000000005, 88.4%, 94.8%)" stroke-width="1.5"></path><path d="M756.03 347.31L736.89 487.44" stroke="hsl(317.20000000000005, 88.4%, 94.8%)" stroke-width="1.5"></path><path d="M756.03 347.31L753.22 200.67" stroke="hsl(317.20000000000005, 88.4%, 94.8%)" stroke-width="1.5"></path><path d="M756.03 347.31L843.83 197.55" stroke="hsl(317.20000000000005, 88.4%, 94.8%)" stroke-width="1.5"></path><path d="M753.48 632.01L753.48 632.01" stroke="hsl(317.20000000000005, 88.4%, 94.8%)" stroke-width="1.5"></path><path d="M753.48 632.01L882.03 625.43" stroke="hsl(317.20000000000005, 88.4%, 94.8%)" stroke-width="1.5"></path><path d="M753.48 632.01L736.89 487.44" stroke="hsl(317.20000000000005, 88.4%, 94.8%)" stroke-width="1.5"></path><path d="M771.33 846.25L771.33 846.25" stroke="hsl(317.20000000000005, 88.4%, 94.8%)" stroke-width="1.5"></path><path d="M771.33 846.25L717.68 775.67" stroke="hsl(317.20000000000005, 88.4%, 94.8%)" stroke-width="1.5"></path><path d="M771.33 846.25L856.92 885.93" stroke="hsl(317.20000000000005, 88.4%, 94.8%)" stroke-width="1.5"></path><path d="M771.33 846.25L851.78 764.27" stroke="hsl(317.20000000000005, 88.4%, 94.8%)" stroke-width="1.5"></path><path d="M879.87 47.75L879.87 47.75" stroke="hsl(317.20000000000005, 88.4%, 94.8%)" stroke-width="1.5"></path><path d="M879.87 47.75L887.65 -100.58" stroke="hsl(317.20000000000005, 88.4%, 94.8%)" stroke-width="1.5"></path><path d="M879.87 47.75L843.83 197.55" stroke="hsl(317.20000000000005, 88.4%, 94.8%)" stroke-width="1.5"></path><path d="M879.87 47.75L724.52 -37.3" stroke="hsl(317.20000000000005, 88.4%, 94.8%)" stroke-width="1.5"></path><path d="M879.87 47.75L753.22 200.67" stroke="hsl(317.20000000000005, 88.4%, 94.8%)" stroke-width="1.5"></path><path d="M879.87 47.75L885.18 342.25" stroke="hsl(317.20000000000005, 88.4%, 94.8%)" stroke-width="1.5"></path><path d="M-91.99 1171.79L-91.99 1171.79" stroke="hsl(317.20000000000005, 88.4%, 94.8%)" stroke-width="1.5"></path><path d="M-91.99 1171.79L76.5 988.51" stroke="hsl(317.20000000000005, 88.4%, 94.8%)" stroke-width="1.5"></path><path d="M-91.99 1171.79L184.25 1146.11" stroke="hsl(317.20000000000005, 88.4%, 94.8%)" stroke-width="1.5"></path><path d="M-91.99 1171.79L213.12 1012.08" stroke="hsl(317.20000000000005, 88.4%, 94.8%)" stroke-width="1.5"></path><path d="M-91.99 1171.79L81.66 869.59" stroke="hsl(317.20000000000005, 88.4%, 94.8%)" stroke-width="1.5"></path><path d="M-91.99 1171.79L304.86 1144.14" stroke="hsl(317.20000000000005, 88.4%, 94.8%)" stroke-width="1.5"></path><path d="M81.66 869.59L81.66 869.59" stroke="hsl(317.20000000000005, 88.4%, 94.8%)" stroke-width="1.5"></path><path d="M81.66 869.59L76.5 988.51" stroke="hsl(317.20000000000005, 88.4%, 94.8%)" stroke-width="1.5"></path><path d="M81.66 869.59L220.13 890.57" stroke="hsl(317.20000000000005, 88.4%, 94.8%)" stroke-width="1.5"></path><path d="M81.66 869.59L213.12 1012.08" stroke="hsl(317.20000000000005, 88.4%, 94.8%)" stroke-width="1.5"></path><path d="M81.66 869.59L352.42 880.91" stroke="hsl(317.20000000000005, 88.4%, 94.8%)" stroke-width="1.5"></path><path d="M76.5 988.51L76.5 988.51" stroke="hsl(317.20000000000005, 88.4%, 94.8%)" stroke-width="1.5"></path><path d="M76.5 988.51L213.12 1012.08" stroke="hsl(317.20000000000005, 88.4%, 94.8%)" stroke-width="1.5"></path><path d="M76.5 988.51L220.13 890.57" stroke="hsl(317.20000000000005, 88.4%, 94.8%)" stroke-width="1.5"></path><path d="M76.5 988.51L184.25 1146.11" stroke="hsl(317.20000000000005, 88.4%, 94.8%)" stroke-width="1.5"></path><path d="M220.13 890.57L220.13 890.57" stroke="hsl(317.20000000000005, 88.4%, 94.8%)" stroke-width="1.5"></path><path d="M220.13 890.57L213.12 1012.08" stroke="hsl(317.20000000000005, 88.4%, 94.8%)" stroke-width="1.5"></path><path d="M213.12 1012.08L213.12 1012.08" stroke="hsl(317.20000000000005, 88.4%, 94.8%)" stroke-width="1.5"></path><path d="M213.12 1012.08L184.25 1146.11" stroke="hsl(317.20000000000005, 88.4%, 94.8%)" stroke-width="1.5"></path><path d="M184.25 1146.11L184.25 1146.11" stroke="hsl(317.20000000000005, 88.4%, 94.8%)" stroke-width="1.5"></path><path d="M184.25 1146.11L304.86 1144.14" stroke="hsl(317.20000000000005, 88.4%, 94.8%)" stroke-width="1.5"></path><path d="M184.25 1146.11L220.13 890.57" stroke="hsl(317.20000000000005, 88.4%, 94.8%)" stroke-width="1.5"></path><path d="M304.86 1144.14L304.86 1144.14" stroke="hsl(317.20000000000005, 88.4%, 94.8%)" stroke-width="1.5"></path><path d="M304.86 1144.14L213.12 1012.08" stroke="hsl(317.20000000000005, 88.4%, 94.8%)" stroke-width="1.5"></path><path d="M304.86 1144.14L481.67 1135.54" stroke="hsl(317.20000000000005, 88.4%, 94.8%)" stroke-width="1.5"></path><path d="M304.86 1144.14L461.38 1039.54" stroke="hsl(317.20000000000005, 88.4%, 94.8%)" stroke-width="1.5"></path><path d="M449.25 621.38L449.25 621.38" stroke="hsl(317.20000000000005, 88.4%, 94.8%)" stroke-width="1.5"></path><path d="M449.25 621.38L475.13 720.46" stroke="hsl(317.20000000000005, 88.4%, 94.8%)" stroke-width="1.5"></path><path d="M449.25 621.38L579.77 712.25" stroke="hsl(317.20000000000005, 88.4%, 94.8%)" stroke-width="1.5"></path><path d="M449.25 621.38L445.66 875.7" stroke="hsl(317.20000000000005, 88.4%, 94.8%)" stroke-width="1.5"></path><path d="M449.25 621.38L352.42 880.91" stroke="hsl(317.20000000000005, 88.4%, 94.8%)" stroke-width="1.5"></path><path d="M475.13 720.46L475.13 720.46" stroke="hsl(317.20000000000005, 88.4%, 94.8%)" stroke-width="1.5"></path><path d="M475.13 720.46L579.77 712.25" stroke="hsl(317.20000000000005, 88.4%, 94.8%)" stroke-width="1.5"></path><path d="M445.66 875.7L445.66 875.7" stroke="hsl(317.20000000000005, 88.4%, 94.8%)" stroke-width="1.5"></path><path d="M445.66 875.7L475.13 720.46" stroke="hsl(317.20000000000005, 88.4%, 94.8%)" stroke-width="1.5"></path><path d="M445.66 875.7L461.38 1039.54" stroke="hsl(317.20000000000005, 88.4%, 94.8%)" stroke-width="1.5"></path><path d="M445.66 875.7L575.28 988.31" stroke="hsl(317.20000000000005, 88.4%, 94.8%)" stroke-width="1.5"></path><path d="M445.66 875.7L635.9 903.34" stroke="hsl(317.20000000000005, 88.4%, 94.8%)" stroke-width="1.5"></path><path d="M461.38 1039.54L461.38 1039.54" stroke="hsl(317.20000000000005, 88.4%, 94.8%)" stroke-width="1.5"></path><path d="M461.38 1039.54L481.67 1135.54" stroke="hsl(317.20000000000005, 88.4%, 94.8%)" stroke-width="1.5"></path><path d="M481.67 1135.54L481.67 1135.54" stroke="hsl(317.20000000000005, 88.4%, 94.8%)" stroke-width="1.5"></path><path d="M481.67 1135.54L594.39 1143.32" stroke="hsl(317.20000000000005, 88.4%, 94.8%)" stroke-width="1.5"></path><path d="M481.67 1135.54L575.28 988.31" stroke="hsl(317.20000000000005, 88.4%, 94.8%)" stroke-width="1.5"></path><path d="M481.67 1135.54L445.66 875.7" stroke="hsl(317.20000000000005, 88.4%, 94.8%)" stroke-width="1.5"></path><path d="M481.67 1135.54L756 1118.34" stroke="hsl(317.20000000000005, 88.4%, 94.8%)" stroke-width="1.5"></path><path d="M629.32 225.1L629.32 225.1" stroke="hsl(317.20000000000005, 88.4%, 94.8%)" stroke-width="1.5"></path><path d="M629.32 225.1L753.22 200.67" stroke="hsl(317.20000000000005, 88.4%, 94.8%)" stroke-width="1.5"></path><path d="M579.77 712.25L579.77 712.25" stroke="hsl(317.20000000000005, 88.4%, 94.8%)" stroke-width="1.5"></path><path d="M579.77 712.25L717.68 775.67" stroke="hsl(317.20000000000005, 88.4%, 94.8%)" stroke-width="1.5"></path><path d="M635.9 903.34L635.9 903.34" stroke="hsl(317.20000000000005, 88.4%, 94.8%)" stroke-width="1.5"></path><path d="M635.9 903.34L575.28 988.31" stroke="hsl(317.20000000000005, 88.4%, 94.8%)" stroke-width="1.5"></path><path d="M635.9 903.34L748.63 981.07" stroke="hsl(317.20000000000005, 88.4%, 94.8%)" stroke-width="1.5"></path><path d="M635.9 903.34L771.33 846.25" stroke="hsl(317.20000000000005, 88.4%, 94.8%)" stroke-width="1.5"></path><path d="M575.28 988.31L575.28 988.31" stroke="hsl(317.20000000000005, 88.4%, 94.8%)" stroke-width="1.5"></path><path d="M594.39 1143.32L594.39 1143.32" stroke="hsl(317.20000000000005, 88.4%, 94.8%)" stroke-width="1.5"></path><path d="M594.39 1143.32L575.28 988.31" stroke="hsl(317.20000000000005, 88.4%, 94.8%)" stroke-width="1.5"></path><path d="M724.52 -37.3L724.52 -37.3" stroke="hsl(317.20000000000005, 88.4%, 94.8%)" stroke-width="1.5"></path><path d="M724.52 -37.3L887.65 -100.58" stroke="hsl(317.20000000000005, 88.4%, 94.8%)" stroke-width="1.5"></path><path d="M724.52 -37.3L753.22 200.67" stroke="hsl(317.20000000000005, 88.4%, 94.8%)" stroke-width="1.5"></path><path d="M753.22 200.67L753.22 200.67" stroke="hsl(317.20000000000005, 88.4%, 94.8%)" stroke-width="1.5"></path><path d="M753.22 200.67L843.83 197.55" stroke="hsl(317.20000000000005, 88.4%, 94.8%)" stroke-width="1.5"></path><path d="M736.89 487.44L736.89 487.44" stroke="hsl(317.20000000000005, 88.4%, 94.8%)" stroke-width="1.5"></path><path d="M717.68 775.67L717.68 775.67" stroke="hsl(317.20000000000005, 88.4%, 94.8%)" stroke-width="1.5"></path><path d="M717.68 775.67L851.78 764.27" stroke="hsl(317.20000000000005, 88.4%, 94.8%)" stroke-width="1.5"></path><path d="M717.68 775.67L753.48 632.01" stroke="hsl(317.20000000000005, 88.4%, 94.8%)" stroke-width="1.5"></path><path d="M717.68 775.67L635.9 903.34" stroke="hsl(317.20000000000005, 88.4%, 94.8%)" stroke-width="1.5"></path><path d="M748.63 981.07L748.63 981.07" stroke="hsl(317.20000000000005, 88.4%, 94.8%)" stroke-width="1.5"></path><path d="M748.63 981.07L877.39 991.79" stroke="hsl(317.20000000000005, 88.4%, 94.8%)" stroke-width="1.5"></path><path d="M748.63 981.07L771.33 846.25" stroke="hsl(317.20000000000005, 88.4%, 94.8%)" stroke-width="1.5"></path><path d="M748.63 981.07L756 1118.34" stroke="hsl(317.20000000000005, 88.4%, 94.8%)" stroke-width="1.5"></path><path d="M748.63 981.07L856.92 885.93" stroke="hsl(317.20000000000005, 88.4%, 94.8%)" stroke-width="1.5"></path><path d="M748.63 981.07L575.28 988.31" stroke="hsl(317.20000000000005, 88.4%, 94.8%)" stroke-width="1.5"></path><path d="M756 1118.34L756 1118.34" stroke="hsl(317.20000000000005, 88.4%, 94.8%)" stroke-width="1.5"></path><path d="M756 1118.34L594.39 1143.32" stroke="hsl(317.20000000000005, 88.4%, 94.8%)" stroke-width="1.5"></path><path d="M887.65 -100.58L887.65 -100.58" stroke="hsl(317.20000000000005, 88.4%, 94.8%)" stroke-width="1.5"></path><path d="M843.83 197.55L843.83 197.55" stroke="hsl(317.20000000000005, 88.4%, 94.8%)" stroke-width="1.5"></path><path d="M843.83 197.55L885.18 342.25" stroke="hsl(317.20000000000005, 88.4%, 94.8%)" stroke-width="1.5"></path><path d="M843.83 197.55L629.32 225.1" stroke="hsl(317.20000000000005, 88.4%, 94.8%)" stroke-width="1.5"></path><path d="M885.18 342.25L885.18 342.25" stroke="hsl(317.20000000000005, 88.4%, 94.8%)" stroke-width="1.5"></path><path d="M885.18 342.25L903.15 446.1" stroke="hsl(317.20000000000005, 88.4%, 94.8%)" stroke-width="1.5"></path><path d="M885.18 342.25L753.22 200.67" stroke="hsl(317.20000000000005, 88.4%, 94.8%)" stroke-width="1.5"></path><path d="M903.15 446.1L903.15 446.1" stroke="hsl(317.20000000000005, 88.4%, 94.8%)" stroke-width="1.5"></path><path d="M903.15 446.1L736.89 487.44" stroke="hsl(317.20000000000005, 88.4%, 94.8%)" stroke-width="1.5"></path><path d="M903.15 446.1L756.03 347.31" stroke="hsl(317.20000000000005, 88.4%, 94.8%)" stroke-width="1.5"></path><path d="M903.15 446.1L882.03 625.43" stroke="hsl(317.20000000000005, 88.4%, 94.8%)" stroke-width="1.5"></path><path d="M903.15 446.1L753.48 632.01" stroke="hsl(317.20000000000005, 88.4%, 94.8%)" stroke-width="1.5"></path><path d="M882.03 625.43L882.03 625.43" stroke="hsl(317.20000000000005, 88.4%, 94.8%)" stroke-width="1.5"></path><path d="M882.03 625.43L851.78 764.27" stroke="hsl(317.20000000000005, 88.4%, 94.8%)" stroke-width="1.5"></path><path d="M851.78 764.27L851.78 764.27" stroke="hsl(317.20000000000005, 88.4%, 94.8%)" stroke-width="1.5"></path><path d="M851.78 764.27L856.92 885.93" stroke="hsl(317.20000000000005, 88.4%, 94.8%)" stroke-width="1.5"></path><path d="M851.78 764.27L753.48 632.01" stroke="hsl(317.20000000000005, 88.4%, 94.8%)" stroke-width="1.5"></path><path d="M856.92 885.93L856.92 885.93" stroke="hsl(317.20000000000005, 88.4%, 94.8%)" stroke-width="1.5"></path><path d="M856.92 885.93L877.39 991.79" stroke="hsl(317.20000000000005, 88.4%, 94.8%)" stroke-width="1.5"></path><path d="M856.92 885.93L717.68 775.67" stroke="hsl(317.20000000000005, 88.4%, 94.8%)" stroke-width="1.5"></path><path d="M877.39 991.79L877.39 991.79" stroke="hsl(317.20000000000005, 88.4%, 94.8%)" stroke-width="1.5"></path><circle r="25" cx="352.42" cy="880.91" fill="url(#SvgjsRadialGradient1051)"></circle><circle r="25" cx="594.98" cy="482.12" fill="url(#SvgjsRadialGradient1051)"></circle><circle r="25" cx="577.49" cy="613.2" fill="url(#SvgjsRadialGradient1051)"></circle><circle r="25" cx="727.98" cy="49.24" fill="url(#SvgjsRadialGradient1051)"></circle><circle r="25" cx="756.03" cy="347.31" fill="url(#SvgjsRadialGradient1051)"></circle><circle r="25" cx="753.48" cy="632.01" fill="url(#SvgjsRadialGradient1051)"></circle><circle r="25" cx="771.33" cy="846.25" fill="url(#SvgjsRadialGradient1051)"></circle><circle r="25" cx="879.87" cy="47.75" fill="url(#SvgjsRadialGradient1051)"></circle><circle r="5" cx="-91.99" cy="1171.79" fill="#fbbeea"></circle><circle r="5" cx="81.66" cy="869.59" fill="#fbbeea"></circle><circle r="5" cx="76.5" cy="988.51" fill="#fbbeea"></circle><circle r="5" cx="220.13" cy="890.57" fill="#fbbeea"></circle><circle r="5" cx="213.12" cy="1012.08" fill="#fbbeea"></circle><circle r="5" cx="184.25" cy="1146.11" fill="#fbbeea"></circle><circle r="5" cx="304.86" cy="1144.14" fill="#fbbeea"></circle><circle r="5" cx="449.25" cy="621.38" fill="#fbbeea"></circle><circle r="5" cx="475.13" cy="720.46" fill="#fbbeea"></circle><circle r="5" cx="445.66" cy="875.7" fill="#fbbeea"></circle><circle r="5" cx="461.38" cy="1039.54" fill="#fbbeea"></circle><circle r="5" cx="481.67" cy="1135.54" fill="#fbbeea"></circle><circle r="5" cx="629.32" cy="225.1" fill="#fbbeea"></circle><circle r="5" cx="579.77" cy="712.25" fill="#fbbeea"></circle><circle r="5" cx="635.9" cy="903.34" fill="#fbbeea"></circle><circle r="5" cx="575.28" cy="988.31" fill="#fbbeea"></circle><circle r="5" cx="594.39" cy="1143.32" fill="#fbbeea"></circle><circle r="5" cx="724.52" cy="-37.3" fill="#fbbeea"></circle><circle r="5" cx="753.22" cy="200.67" fill="#fbbeea"></circle><circle r="5" cx="736.89" cy="487.44" fill="#fbbeea"></circle><circle r="5" cx="717.68" cy="775.67" fill="#fbbeea"></circle><circle r="5" cx="748.63" cy="981.07" fill="#fbbeea"></circle><circle r="5" cx="756" cy="1118.34" fill="#fbbeea"></circle><circle r="5" cx="887.65" cy="-100.58" fill="#fbbeea"></circle><circle r="5" cx="843.83" cy="197.55" fill="#fbbeea"></circle><circle r="5" cx="885.18" cy="342.25" fill="#fbbeea"></circle><circle r="5" cx="903.15" cy="446.1" fill="#fbbeea"></circle><circle r="5" cx="882.03" cy="625.43" fill="#fbbeea"></circle><circle r="5" cx="851.78" cy="764.27" fill="#fbbeea"></circle><circle r="5" cx="856.92" cy="885.93" fill="#fbbeea"></circle><circle r="5" cx="877.39" cy="991.79" fill="#fbbeea"></circle></g><defs><mask id="SvgjsMask1050"><rect width="800" height="1080" fill="#ffffff"></rect></mask><radialGradient id="SvgjsRadialGradient1051"><stop stop-color="#ffffff" offset="0.1"></stop><stop stop-color="rgba(247, 125, 212, 1)" offset="0.2"></stop><stop stop-color="rgba(247, 125, 212, 0)" offset="1"></stop></radialGradient></defs></svg>